<svg width="111" height="101" viewBox="0 0 111 101" fill="none" xmlns="http://www.w3.org/2000/svg">
<g clip-path="url(#clip0_26_138)">
<path d="M24.4618 26.0651C27.6218 26.0651 30.7918 26.1151 33.9518 26.0651C34.7007 26.0027 35.4511 26.1654 36.1068 26.5324C36.7625 26.8995 37.2936 27.4541 37.6318 28.1251C43.1818 37.4851 48.7818 46.8151 54.3318 56.2351C55.6318 58.4351 55.8918 58.5051 57.2218 56.2351C62.6318 47.1351 68.0618 38.0351 73.3518 28.8651C73.799 27.9075 74.5331 27.1129 75.4524 26.5914C76.3716 26.07 77.4304 25.8476 78.4818 25.9551C84.4118 26.1151 90.3518 25.9551 96.2818 26.0151C99.6318 26.0151 100.022 26.7151 98.2818 29.5751C88.2085 46.6818 78.0985 63.7618 67.9518 80.8151C64.4518 86.7285 60.9218 92.6251 57.3618 98.5051C56.1018 100.595 55.2918 100.585 54.0718 98.5051C42.4785 78.9651 30.8751 59.4018 19.2618 39.8151C17.0918 36.1451 14.8818 32.4851 12.7518 28.8151C11.7518 27.0051 12.1618 26.1651 14.2518 26.1151C17.6518 26.0351 21.0518 26.1151 24.4618 26.1151V26.0651Z" fill="#0C4DC4"/>
<path d="M55.7218 0.815186H108.622C110.282 0.925186 111.042 1.57519 110.032 3.24519L102.332 16.0552C101.392 17.6252 99.7918 17.4552 98.3318 17.4552C89.0718 17.4552 79.8118 17.5352 70.5618 17.4552C67.9818 17.4552 66.3118 18.1352 65.0218 20.5152C62.6118 24.9552 59.8918 29.2252 57.2518 33.5152C56.0718 35.4252 55.4118 35.4352 54.2518 33.5152C51.4818 28.9952 48.7218 24.5152 46.0818 19.8752C45.7088 19.0951 45.1097 18.4453 44.3625 18.0101C43.6152 17.575 42.7544 17.3747 41.8918 17.4352C32.4718 17.4952 23.0518 17.3852 13.6418 17.4952C11.0918 17.4952 9.36181 16.9552 8.09181 14.4952C6.19181 10.9252 3.89181 7.49519 1.76181 3.98519C0.341809 1.64519 0.721809 0.895186 3.49181 0.885186H55.6918L55.7218 0.815186Z" fill="#D7000F"/>
</g>
<defs>
<clipPath id="clip0_26_138">
<rect width="109.532" height="99.2538" fill="white" transform="translate(0.954735 0.815186)"/>
</clipPath>
</defs>
</svg>
